# xmcd
#
# Track frame offsets:
#	150
#	17673
#	31368
#	52570
#	67526
#	85956
#	100216
#	115431
#	130336
#	146671
#	162037
#
# Disc length: 2376 seconds
#
# Revision: 1
# Processed by: cddbd v1.5.2PL0 Copyright (c) Steve Scherf et al.
# Submitted via: audiograbber 1.83.01
#
DISCID=8309460b
DTITLE=Twofold Bases - Front Porch Blues
DYEAR=2013
DGENRE=Blues
TTITLE0=Down Home Blues
TTITLE1=My Babe
TTITLE2=Come Together
TTITLE3=Polk Salad Annie
TTITLE4=Stranded
TTITLE5=Crossroads
TTITLE6=Tilbury Town
TTITLE7=Down In Mississippi
TTITLE8=Pride And Joy
TTITLE9=Same Kind Of Pressure
TTITLE10=Poor Boy
EXTD=Rene Wermke ( Stomp, Harmonica, Vocals]\nWolfgang Scholz (Guitar, Vocals)
EXTT0=
EXTT1=
EXTT2=
EXTT3=
EXTT4=
EXTT5=
EXTT6=
EXTT7=
EXTT8=
EXTT9=
EXTT10=
PLAYORDER=
